PathFileType	4	(x/y/z)	S10_P20_T26
DataRate	CameraRate	NumFrames	NumMarkers	Units	OrigDataRate	OrigDataStartFrame	OrigNumFrames
240	240	4	51	mm	240	259	414
Frame#	Time	Sternum			R.Acromium			L.Acromium			Top.Head			R.ASIS			L.ASIS			R.PSIS			L.PSIS			R.Great.Tro			L.Great.Tro			R.Iliac.Crest			L.Iliac.Crest			V.Sacral			R.Thigh.Upper.Post			R.Thigh.Lower.Ant			R.Thigh.Lower.Post			R.Thigh.Upper.Ant			R.Knee.Lat			R.Knee.Med			R.Shank.Upper.Post			R.Shank.Lower.Ant			R.Shank.Lower.Post			R.Shank.Upper.Ant			R.Ankle.Lat			R.Ankle.Med			R.Heel.Upper			R.Heel.Med			R.Heel.Lat			R.Toe.Lat			R.Toe.Med			R.Toe.Tip			L.Thigh.Upper.Post			L.Thigh.Lower.Ant			L.Thigh.Lower.Post			L.Thigh.Upper.Ant			L.Knee.Lat			L.Knee.Med			L.Shank.Upper.Post			L.Shank.Lower.Ant			L.Shank.Lower.Post			L.Shank.Upper.Ant			L.Ankle.Lat			L.Ankle.Med			L.Heel.Upper			L.Heel.Med			L.Heel.Lat			L.Toe.Lat			L.Toe.Med			L.Toe.Tip			Cervical.Spine			Back			
		X1	Y1	Z1	X2	Y2	Z2	X3	Y3	Z3	X4	Y4	Z4	X5	Y5	Z5	X6	Y6	Z6	X7	Y7	Z7	X8	Y8	Z8	X9	Y9	Z9	X10	Y10	Z10	X11	Y11	Z11	X12	Y12	Z12	X13	Y13	Z13	X14	Y14	Z14	X15	Y15	Z15	X16	Y16	Z16	X17	Y17	Z17	X18	Y18	Z18	X19	Y19	Z19	X20	Y20	Z20	X21	Y21	Z21	X22	Y22	Z22	X23	Y23	Z23	X24	Y24	Z24	X25	Y25	Z25	X26	Y26	Z26	X27	Y27	Z27	X28	Y28	Z28	X29	Y29	Z29	X30	Y30	Z30	X31	Y31	Z31	X32	Y32	Z32	X33	Y33	Z33	X34	Y34	Z34	X35	Y35	Z35	X36	Y36	Z36	X37	Y37	Z37	X38	Y38	Z38	X39	Y39	Z39	X40	Y40	Z40	X41	Y41	Z41	X42	Y42	Z42	X43	Y43	Z43	X44	Y44	Z44	X45	Y45	Z45	X46	Y46	Z46	X47	Y47	Z47	X48	Y48	Z48	X49	Y49	Z49	X50	Y50	Z50	X51	Y51	Z51	

259	1.075	40.161	1256.4	262.7	-50.449	1416.4	433.08	-109.32	1437.9	136.88	-82.29	1737.1	302.77	4.4451	987.1	390.45	-29.587	1014	163.47	-207.72	1008.6	330.8	-215.65	1017.3	250.37	-68.577	909.18	471.92	-89.317	952.69	109.93	-82.898	1066.3	447.06	-103.2	1082	144.58	-231.43	977.72	296.49	-102.98	701.6	460.99	-63.982	615.03	421.75	-127.28	616.02	449.86	-37.139	701.87	428.83	-171.64	495.09	416.58	-181.07	502.8	288.43	-354.06	346.17	425.76	-336.98	256.59	406.53	-395.04	284.8	421.14	-288.19	316.56	411.84	-443.58	186.85	400.55	-436.02	191.12	321.64	-522.63	180.82	352.89	-533.07	155.37	325.61	-534.99	160.13	387.57	-409.02	49.938	431.82	-383.9	40.951	324.02	-330.27	42.052	361.67	-39.855	671.83	118.05	52.937	616.8	141.39	-11.043	582.74	140.93	32.361	702.61	118.08	51.681	515.26	149.93	60.858	517.82	279.14	32.477	294.22	148.76	115.33	221.94	163.53	51.411	218.96	157.2	97.184	296.32	155.2	104.46	105.86	167.6	117.91	116.66	254.01	45.888	73.786	214.73	58.964	42.402	248.44	53.851	43.921	183.48	230.07	48.368	147.71	255.23	63.308	252.96	307.28	81.043	205.89	-153.58	1479.2	310.98	-239.32	1270.2	321.23
260	1.0792	45.924	1256.5	262.04	-45.233	1416.4	432.41	-103.37	1438	136.1	-76.878	1737.1	302.24	9.9974	987.26	389.87	-23.688	1014.2	162.9	-202.09	1008.5	330.04	-209.85	1017.3	249.58	-62.796	908.91	471.05	-83.209	953.03	109.22	-77.497	1066.3	446.37	-97.356	1082.1	143.94	-225.66	977.59	295.6	-95.287	700.98	460.44	-55.343	614.69	421.53	-118.68	615.12	449.53	-29.447	701.87	428.36	-162.08	493.82	416.55	-170.74	500.99	288.35	-346.31	347.5	425.05	-330.49	257.63	406.38	-388.26	286.76	420.62	-280.88	316.98	411.77	-437.95	189.66	400.2	-429.98	193.44	321.16	-516.08	185.83	351.97	-527.42	160.74	324.69	-529.27	165.74	386.63	-407.68	51.462	431.53	-382.89	41.418	323.88	-329.83	41.657	361.54	-33.759	672.07	117.57	58.931	617.03	141.29	-5.0732	583.01	140.57	38.456	702.88	117.95	57.538	515.41	149.94	66.254	518.13	279.18	36.271	294.57	148.71	118.22	221.37	163.84	54.299	219.13	157.23	100.97	295.96	155.39	105.53	105.71	167.72	119.18	116.19	254.22	46.382	74.164	214.87	59.147	42.557	248.49	54.018	44.248	183.53	230.45	47.041	147.64	255.88	61.317	253.04	308.22	78.445	205.89	-148.06	1479.2	310.07	-233.74	1270.2	320.11
261	1.0833	51.676	1256.8	261.42	-40.042	1416.5	431.77	-97.403	1438.1	135.35	-71.455	1737.2	301.7	15.496	987.45	389.31	-17.805	1014.5	162.34	-196.5	1008.4	329.26	-204.07	1017.3	248.77	-57.057	908.66	470.17	-77.124	953.42	108.5	-72.158	1066.4	445.68	-91.508	1082.4	143.31	-219.92	977.5	294.69	-87.502	700.38	459.92	-46.588	614.4	421.35	-109.95	614.24	449.24	-21.683	701.93	427.92	-152.35	492.57	416.56	-160.12	499.14	288.3	-338.32	348.87	424.29	-323.75	258.73	406.24	-381.23	288.78	420.04	-273.35	317.45	411.72	-432.03	192.54	399.82	-423.62	195.81	320.63	-509.12	190.98	350.99	-521.36	166.28	323.7	-523.13	171.52	385.63	-406.21	53.163	431.21	-381.74	42.024	323.72	-329.31	41.22	361.42	-27.703	672.34	117.05	64.88	617.28	141.15	0.84779	583.3	140.2	44.511	703.17	117.77	63.33	515.58	149.94	71.608	518.47	279.21	39.968	294.96	148.63	121	220.84	164.15	57.078	219.34	157.26	104.65	295.61	155.57	106.52	105.6	167.84	120.34	115.8	254.45	46.813	74.498	215	59.308	42.696	248.54	54.165	44.548	183.58	230.78	45.913	147.57	256.46	59.524	253.14	309.06	76.11	205.91	-142.56	1479.2	309.16	-228.19	1270.3	318.99
262	1.0875	57.415	1257	260.84	-34.877	1416.6	431.15	-91.419	1438.3	134.62	-66.023	1737.3	301.17	20.938	987.67	388.77	-11.94	1014.8	161.79	-190.95	1008.3	328.46	-198.32	1017.4	247.94	-51.362	908.43	469.3	-71.069	953.85	107.78	-66.884	1066.4	445	-85.661	1082.7	142.68	-214.22	977.45	293.75	-79.639	699.81	459.44	-37.727	614.17	421.22	-101.12	613.39	449	-13.855	702.04	427.5	-142.48	491.35	416.61	-149.21	497.25	288.28	-330.11	350.3	423.49	-316.79	259.91	406.12	-373.96	290.86	419.4	-265.61	317.97	411.68	-425.81	195.48	399.42	-416.96	198.25	320.04	-501.74	196.26	349.98	-514.89	171.98	322.67	-516.59	177.46	384.57	-404.6	55.047	430.84	-380.45	42.779	323.51	-328.69	40.74	361.31	-21.696	672.63	116.51	70.774	617.54	140.99	6.7113	583.62	139.81	50.52	703.47	117.56	69.045	515.76	149.94	76.92	518.83	279.22	43.56	295.37	148.55	123.66	220.34	164.46	59.745	219.58	157.29	108.22	295.29	155.73	107.43	105.53	167.98	121.39	115.47	254.67	47.187	74.789	215.13	59.45	42.818	248.6	54.292	44.819	183.63	231.06	44.97	147.5	256.97	57.921	253.24	309.81	74.027	205.93	-137.07	1479.3	308.28	-222.67	1270.4	317.86
